<svg viewBox="0 0 520 130" xmlns="http://www.w3.org/2000/svg" width="520" height="130">
  <defs>
    <linearGradient id="iconGrad" x1="0%" y1="0%" x2="100%" y2="100%">
      <stop offset="0%" style="stop-color:#4FC3F7;stop-opacity:1" />
      <stop offset="100%" style="stop-color:#0288D1;stop-opacity:1" />
    </linearGradient>
    <linearGradient id="bgGrad" x1="0%" y1="0%" x2="100%" y2="100%">
      <stop offset="0%" style="stop-color:#0d1b2a;stop-opacity:1" />
      <stop offset="100%" style="stop-color:#1a2e45;stop-opacity:1" />
    </linearGradient>
  </defs>
  <rect width="520" height="130" rx="12" fill="url(#bgGrad)"/>
  <g transform="translate(22, 18)">
    <rect x="34" y="8" width="6" height="62" rx="3" fill="url(#iconGrad)"/>
    <rect x="20" y="8" width="34" height="6" rx="3" fill="url(#iconGrad)"/>
    <rect x="20" y="64" width="34" height="6" rx="3" fill="url(#iconGrad)"/>
    <circle cx="10" cy="20" r="5" fill="none" stroke="#4FC3F7" stroke-width="2" opacity="0.55"/>
    <circle cx="10" cy="20" r="2" fill="#4FC3F7" opacity="0.8"/>
    <circle cx="64" cy="20" r="5" fill="none" stroke="#4FC3F7" stroke-width="2" opacity="0.55"/>
    <circle cx="64" cy="20" r="2" fill="#4FC3F7" opacity="0.8"/>
    <circle cx="10" cy="60" r="5" fill="none" stroke="#4FC3F7" stroke-width="2" opacity="0.55"/>
    <circle cx="10" cy="60" r="2" fill="#4FC3F7" opacity="0.8"/>
    <circle cx="64" cy="60" r="5" fill="none" stroke="#4FC3F7" stroke-width="2" opacity="0.55"/>
    <circle cx="64" cy="60" r="2" fill="#4FC3F7" opacity="0.8"/>
    <line x1="15" y1="20" x2="20" y2="20" stroke="#4FC3F7" stroke-width="1.5" opacity="0.4"/>
    <line x1="54" y1="20" x2="59" y2="20" stroke="#4FC3F7" stroke-width="1.5" opacity="0.4"/>
    <line x1="15" y1="60" x2="20" y2="60" stroke="#4FC3F7" stroke-width="1.5" opacity="0.4"/>
    <line x1="54" y1="60" x2="59" y2="60" stroke="#4FC3F7" stroke-width="1.5" opacity="0.4"/>
    <circle cx="37" cy="39" r="4" fill="#4FC3F7" opacity="0.9"/>
    <circle cx="37" cy="39" r="7" fill="none" stroke="#4FC3F7" stroke-width="1" opacity="0.3"/>
  </g>
  <text x="112" y="65" font-family="Arial Black, sans-serif" font-size="44" font-weight="900" letter-spacing="2" fill="white">INTEL</text>
  <text x="299" y="65" font-family="Arial Black, sans-serif" font-size="44" font-weight="900" letter-spacing="2" fill="#4FC3F7">IS</text>
  <text x="113" y="86" font-family="Arial, sans-serif" font-size="10.5" fill="#4FC3F7" letter-spacing="2.5" opacity="0.8">INSTITUICAO CIENTIFICA E TECNOLOGICA</text>
  <line x1="113" y1="95" x2="495" y2="95" stroke="#4FC3F7" stroke-width="1" opacity="0.25"/>
</svg>